<svg xmlns="http://www.w3.org/2000/svg" width="42" height="42" viewBox="0 0 42 42">
    <path
        d="M22.205 40.291c.27 0 .643.382.643.854s-.372.855-.641.855h-2.379c-.27 0-.643-.381-.643-.853 0-.473.372-.856.641-.856Zm-7.033-.849.069.01 2.31.567c.262.067.533.534.42.987-.112.454-.565.737-.827.672l-2.31-.567c-.263-.064-.532-.524-.42-.983.113-.458.566-.74.827-.677Zm11.617 0c.262-.065.718.213.829.671.11.459-.158.92-.42.984l-2.31.571c-.26.068-.716-.214-.828-.672-.111-.458.158-.919.42-.984Zm-16.763-1.446c.219-.418.726-.584.965-.46l2.107 1.105c.239.125.387.637.168 1.055-.22.417-.727.584-.966.458l-2.106-1.103c-.236-.125-.388-.636-.168-1.055Zm21.01-.476c.239-.122.745.04.966.457.221.418.07.93-.168 1.055L29.73 40.14c-.239.125-.744-.038-.966-.457-.222-.418-.07-.93.168-1.055Zm-9.322-.338c.27 0 .643.383.643.854s-.371.855-.641.855h-1.402c-.27 0-.643-.382-.643-.854s.371-.855.64-.855Zm-5.326-.645.07.009 1.362.336c.261.064.532.524.419.983-.113.458-.565.74-.828.677l-1.36-.336c-.263-.065-.534-.526-.42-.984.112-.458.565-.741.827-.676Zm9.182.006c.262-.068.718.214.829.672.11.459-.16.92-.42.984l-1.362.336c-.262.065-.717-.214-.828-.672-.111-.458.159-.92.42-.984ZM6.275 34.876c.313-.353.845-.393 1.047-.215l1.781 1.576c.203.178.229.711-.084 1.065-.313.353-.845.394-1.047.215L6.191 35.94c-.204-.178-.23-.713.084-1.065Zm28.425-.239c.201-.179.737-.14 1.047.213.31.353.286.886.084 1.066l-1.778 1.578c-.202.179-.739.141-1.048-.212-.31-.354-.286-.887-.084-1.066Zm-22.798.83c.22-.417.727-.584.965-.459l1.242.65c.239.126.39.637.172 1.056-.219.418-.726.583-.965.458l-1.242-.65c-.24-.125-.391-.636-.172-1.054Zm17.251-.473c.239-.125.745.04.966.458.222.417.07.929-.168 1.054l-1.242.653c-.237.126-.743-.04-.965-.457-.222-.418-.07-.93.168-1.055Zm-8.143-.923a.854.854 0 1 1 .002 1.709.854.854 0 0 1-.002-1.71Zm-4.163.25a.855.855 0 1 1 1.66.406.855.855 0 0 1-1.66-.407Zm7.292-.633a.855.855 0 1 1 .41 1.66.855.855 0 0 1-.41-1.66ZM8.7 32.87c.313-.354.846-.393 1.047-.215l1.05.929c.205.179.23.711-.083 1.065s-.846.397-1.047.215l-1.05-.93c-.204-.177-.23-.71.083-1.064Zm23.569-.235c.201-.179.734-.14 1.048.214.313.35.289.885.084 1.064l-1.05.93c-.2.18-.736.141-1.046-.212-.31-.353-.286-.886-.084-1.065Zm-18.49.304a.855.855 0 1 1 1.513.793.855.855 0 0 1-1.514-.793Zm13.308-.371a.855.855 0 1 1 .795 1.513.855.855 0 0 1-.795-1.513Zm-23.706-1.62c.388-.267.915-.178 1.068.043L5.8 32.947c.155.222.052.746-.336 1.014-.389.268-.915.18-1.068-.042l-1.352-1.957c-.156-.221-.052-.746.336-1.013Zm34.186.014c.152-.222.68-.312 1.067-.044.39.264.491.79.337 1.013l-1.349 1.958c-.153.223-.683.313-1.068.045s-.489-.791-.336-1.013Zm-16.894.062a.856.856 0 1 1 .654 1.581.856.856 0 0 1-.654-1.58Zm-3.092.273a.855.855 0 1 1 1.66.408.855.855 0 0 1-1.66-.408Zm5.802-.626a.855.855 0 1 1 .41 1.66.855.855 0 0 1-.41-1.66Zm-12.253.193a.855.855 0 1 1 1.28 1.133.855.855 0 0 1-1.28-1.133Zm18.55-.09a.855.855 0 1 1 1.134 1.28.855.855 0 0 1-1.135-1.28ZM6.215 29.583c.389-.268.915-.18 1.069.042l.796 1.153c.156.222.052.745-.336 1.014-.388.268-.915.18-1.068-.042l-.797-1.153c-.155-.222-.053-.746.336-1.014Zm28.511.018c.153-.222.68-.311 1.068-.044.39.268.493.791.336 1.013l-.795 1.155c-.152.222-.682.31-1.067.044-.386-.268-.49-.792-.337-1.014Zm-19.511.579a.855.855 0 1 1 1.513.795.855.855 0 0 1-1.513-.795Zm10.413-.36a.855.855 0 1 1 .794 1.514.855.855 0 0 1-.794-1.513Zm-12.442-1.29a.856.856 0 1 1 1.28 1.134.856.856 0 0 1-1.28-1.135Zm14.419-.073a.855.855 0 1 1 1.133 1.28.855.855 0 0 1-1.133-1.28Zm-26.09-2.013c.438-.168.93.045 1.026.297l.84 2.223c.096.252-.128.735-.567.903-.438.168-.93-.044-1.026-.296l-.845-2.224c-.096-.252.133-.735.571-.903Zm37.955.264c.094-.252.584-.466 1.025-.298.442.167.668.65.574.902l-.84 2.225c-.096.252-.586.466-1.028.299-.44-.168-.667-.651-.572-.903ZM9.055 28.215a.855.855 0 1 1 .972 1.406.855.855 0 0 1-.972-1.406Zm22.709.198a.855.855 0 1 1 1.407.97.855.855 0 0 1-1.407-.97Zm-27.17-2.618c.438-.167.93.044 1.026.296l.498 1.31c.095.253-.132.736-.571.904-.439.168-.931-.045-1.027-.297l-.498-1.31c-.096-.252.133-.736.571-.903Zm31.793.27c.096-.252.585-.466 1.027-.299.44.168.668.65.572.903l-.495 1.31c-.096.253-.586.467-1.027.299-.442-.166-.668-.65-.572-.902Zm-24.776.376a.855.855 0 1 1 .972 1.407.855.855 0 0 1-.972-1.407Zm17.587.217a.855.855 0 1 1 1.406.972.855.855 0 0 1-1.406-.972ZM7.675 25.147a.855.855 0 1 1 .607 1.598.855.855 0 0 1-.607-1.598Zm26.327-.078a.855.855 0 1 1 .053 1.709.855.855 0 0 1-.053-1.709Zm-23.703-.852a.855.855 0 1 1 1.172 1.245.855.855 0 0 1-1.172-1.245Zm20.014.32a.855.855 0 1 1 1.598.607.855.855 0 0 1-1.598-.607ZM.776 21.62c.467-.054.892.266.924.534l.289 2.36c.032.268-.303.683-.772.74-.468.058-.893-.266-.926-.533l-.287-2.36c-.035-.268.305-.687.772-.741Zm40.334-.042.116.007c.467.056.803.472.772.739l-.284 2.361c-.031.267-.455.591-.924.535-.47-.056-.804-.471-.772-.74l.284-2.36c.03-.268.455-.592.924-.535Zm-37.185.15c.468-.054.892.266.925.534l.168 1.392c.032.267-.302.682-.77.74-.47.057-.894-.27-.925-.534l-.168-1.39c-.033-.269.303-.687.77-.742Zm34.037-.036.116.007c.47.056.804.471.772.738l-.168 1.392c-.032.268-.455.591-.924.535-.469-.056-.804-.471-.772-.738l.168-1.392c.031-.268.455-.592.924-.535Zm-30.89.149a.854.854 0 1 1 .208 1.696.854.854 0 0 1-.208-1.696Zm27.754-.035.107.007a.854.854 0 1 1-.203 1.696.854.854 0 0 1 .203-1.696Zm-24.668-.35a.854.854 0 1 1 .206 1.696.854.854 0 0 1-.206-1.697Zm21.568-.007.114.006a.854.854 0 1 1-.204 1.695.854.854 0 0 1 .204-1.695Zm-21.469-2.608.107.007a.854.854 0 1 1-.206 1.696.854.854 0 0 1 .206-1.696Zm21.377.007a.854.854 0 1 1 .207 1.697.854.854 0 0 1-.207-1.697ZM1.096 16.756l.116.007c.469.057.804.472.772.74l-.286 2.36c-.031.268-.456.592-.924.535-.468-.052-.805-.472-.772-.74l.286-2.36c.031-.268.455-.592.924-.535Zm39.681-.028c.468-.057.893.266.924.533l.29 2.36c.032.268-.304.686-.77.741-.467.056-.892-.265-.925-.532l-.29-2.36c-.032-.268.302-.684.771-.742Zm-36.65.887.116.006c.469.057.804.472.771.74l-.168 1.392c-.03.268-.456.59-.924.534-.468-.056-.803-.472-.771-.74l.168-1.391c.032-.267.455-.59.924-.535Zm33.621-.026c.466-.056.892.265.924.532l.168 1.391c.033.268-.303.687-.77.742-.466.055-.89-.265-.924-.533l-.168-1.391c-.032-.264.304-.686.77-.741Zm-30.586.885.113.006a.854.854 0 1 1-.206 1.696.854.854 0 0 1 .206-1.696Zm27.558-.018a.854.854 0 1 1 .207 1.696.854.854 0 0 1-.207-1.696Zm-24.634-1.593a.855.855 0 0 1 1.653.277.854.854 0 1 1-1.653-.277Zm20.72-.496a.854.854 0 1 1 .609 1.596.854.854 0 0 1-.608-1.596Zm-23.454-.885a.855.855 0 1 1 1.245 1.171.855.855 0 0 1-1.245-1.17Zm26.36-.236a.855.855 0 0 1 .89 1.42.855.855 0 1 1-.89-1.42ZM4.514 14.008c.096-.253.586-.466 1.027-.299.441.168.667.651.572.903l-.497 1.312c-.095.252-.585.465-1.026.297-.444-.167-.672-.651-.572-.903Zm31.93-.326c.44-.168.932.044 1.027.296l.5 1.31c.095.252-.132.737-.571.904-.44.168-.931-.043-1.028-.295l-.498-1.31c-.097-.253.13-.737.57-.905Zm-7.029.473a.856.856 0 1 1 .972 1.408.856.856 0 0 1-.972-1.408Zm-18.022.217a.855.855 0 1 1 1.406.972.855.855 0 0 1-1.406-.972ZM1.777 12.45c.096-.252.582-.465 1.024-.298.442.167.668.651.572.903l-.84 2.224c-.096.252-.586.465-1.027.297-.444-.167-.667-.65-.57-.902Zm37.402-.33c.439-.168.931.044 1.027.296l.847 2.223c.096.25-.132.735-.57.903-.44.168-.932-.043-1.028-.295l-.847-2.223c-.095-.252.132-.736.571-.904Zm-30.348.49a.855.855 0 1 1 1.406.97.855.855 0 0 1-1.406-.97Zm23.66-.39.112.014a.854.854 0 1 1-.305 1.68.854.854 0 0 1 .305-1.68Zm-19.232.047a.855.855 0 1 1 1.134 1.28.855.855 0 0 1-1.134-1.28Zm14.274.073a.855.855 0 1 1 1.28 1.134.855.855 0 0 1-1.28-1.134ZM6.67 10.265c.153-.222.683-.31 1.068-.043.386.268.49.792.337 1.013l-.796 1.155c-.154.221-.68.31-1.069.042-.388-.267-.492-.79-.336-1.013Zm27.573-.066c.389-.27.915-.18 1.068.041l.799 1.153c.154.221.052.745-.337 1.013-.388.27-.914.181-1.068-.04l-.798-1.153c-.154-.222-.051-.745.336-1.014Zm-18.349.375a.855.855 0 1 1 .155 1.703.855.855 0 0 1-.155-1.703Zm9.375.454a.855.855 0 0 1 1.608.474.854.854 0 1 1-1.608-.474ZM11.813 9.725a.855.855 0 1 1-.103 1.708.855.855 0 0 1 .103-1.708Zm18.353-.014a.855.855 0 1 1 .106 1.706.855.855 0 0 1-.106-1.706Zm-11.963-.04a.855.855 0 1 1 .41 1.66.855.855 0 0 1-.41-1.66Zm4.555.625a.855.855 0 1 1 1.66.41.855.855 0 0 1-1.66-.41ZM4.386 8.097c.154-.222.683-.31 1.069-.043.385.268.489.792.336 1.013l-1.35 1.958c-.154.222-.68.311-1.069.043-.389-.268-.492-.792-.336-1.014Zm32.136-.07c.388-.268.914-.18 1.068.04l1.355 1.956c.154.222.052.745-.337 1.014-.388.269-.914.18-1.068-.041l-1.354-1.955c-.155-.221-.052-.745.336-1.014Zm-15.849 1.37a.856.856 0 1 1 .654 1.58.856.856 0 0 1-.654-1.58Zm-6.8-1.275a.855.855 0 1 1 1.312 1.094.855.855 0 0 1-1.312-1.094Zm12.821.142a.855.855 0 1 1 1.515.793.855.855 0 0 1-1.515-.793ZM9.658 7.148c.201-.18.736-.14 1.046.213.311.354.286.886.085 1.065l-1.05.93c-.202.18-.733.14-1.047-.214-.313-.353-.288-.886-.086-1.06Zm21.614.196c.313-.355.845-.394 1.047-.216l1.051.925c.203.178.229.711-.084 1.065-.312.353-.845.394-1.047.215l-1.05-.924c-.203-.18-.23-.712.083-1.065Zm-13.812-.69a.855.855 0 1 1 .41 1.659.855.855 0 0 1-.41-1.66Zm6.72-.024a.855.855 0 1 1 .26 1.69.855.855 0 0 1-.26-1.69Zm-3.178-.41a.855.855 0 1 1-.004 1.711.855.855 0 0 1 .004-1.71ZM7.96 4.496c.202-.18.736-.139 1.047.214.311.353.286.886.084 1.065L7.31 7.352c-.198.179-.739.14-1.05-.213-.31-.354-.285-.887-.084-1.066Zm25.007.19c.313-.354.845-.395 1.046-.216l1.783 1.574c.203.178.229.712-.084 1.065-.312.354-.845.394-1.047.216l-1.782-1.574c-.203-.18-.228-.712.084-1.065Zm-19.664.15c.238-.13.743.04.965.458.222.417.07.929-.168 1.054L12.857 7c-.238.125-.743-.04-.965-.458-.222-.418-.07-.93.168-1.055Zm14.402.45c.218-.419.725-.585.964-.46l1.243.648c.239.126.39.637.172 1.056-.218.418-.725.584-.964.46l-1.243-.654c-.239-.125-.39-.632-.172-1.05ZM17.396 3.46c.262-.062.717.215.829.673.112.458-.16.918-.42.983l-1.362.336c-.262.068-.716-.214-.828-.672-.112-.459.158-.92.42-.984Zm7.11-.013.069.009 1.362.336c.262.064.531.525.42.983-.112.457-.565.74-.827.677l-1.361-.336c-.266-.06-.534-.524-.421-.982.112-.459.564-.742.827-.678ZM21.7 3.11c.27 0 .642.383.642.854 0 .472-.372.855-.642.855h-1.402c-.27 0-.642-.384-.642-.855s.372-.854.642-.854Zm-9.414-1.256c.238-.13.743.04.965.458.223.417.07.93-.168 1.055l-2.106 1.105c-.24.125-.74-.044-.963-.461-.223-.417-.07-.93.168-1.055Zm16.426.444c.22-.418.726-.584.965-.46l2.108 1.102c.24.125.391.636.173 1.054-.219.419-.726.586-.965.46l-2.108-1.102c-.239-.124-.392-.635-.173-1.054ZM17.127.326c.262-.064.717.218.828.676.11.459-.159.92-.42.984l-2.31.569c-.261.066-.716-.217-.828-.676-.111-.459.158-.919.42-.984ZM24.772.31l.069.01 2.306.565c.262.064.533.524.42.982-.112.46-.564.742-.826.677L24.43 1.98c-.261-.064-.529-.523-.416-.982.113-.459.565-.742.827-.678ZM22.188 0c.27 0 .642.384.642.855s-.372.854-.642.854H19.81c-.27 0-.641-.382-.641-.854S19.54 0 19.809 0Z"
        fill="#262529" fill-rule="nonzero" />
</svg>